<mxfile host="app.diagrams.net" modified="2022-09-13T12:42:31.351Z" agent="5.0 (Macintosh; Intel Mac OS X 10_15_7) AppleWebKit/537.36 (KHTML, like Gecko) Chrome/103.0.5060.134 Safari/537.36 OPR/89.0.4447.83" etag="92XODAay4hH543t8RCdZ" version="20.2.3" type="github">
  <diagram id="zsoMWF6_PRpGSgfBhDSZ" name="Page-1">
    <mxGraphModel dx="1303" dy="842" grid="1" gridSize="10" guides="1" tooltips="1" connect="1" arrows="1" fold="1" page="1" pageScale="1" pageWidth="827" pageHeight="1169" math="0" shadow="0">
      <root>
        <mxCell id="0" />
        <mxCell id="1" parent="0" />
        <mxCell id="XgUEgmGRAu_tAy5mbtj5-3" value="&lt;font&gt;ist immer ein&lt;/font&gt;" style="edgeStyle=orthogonalEdgeStyle;orthogonalLoop=1;jettySize=auto;html=1;exitX=0.5;exitY=1;exitDx=0;exitDy=0;entryX=0.5;entryY=1;entryDx=0;entryDy=0;fontFamily=Comic Sans MS;fontSize=18;fontColor=#994C00;curved=1;strokeWidth=2;sketch=1;strokeColor=#d79b00;endSize=10;startSize=10;endArrow=open;endFill=0;fillColor=#ffe6cc;" edge="1" parent="1" source="XgUEgmGRAu_tAy5mbtj5-1" target="XgUEgmGRAu_tAy5mbtj5-2">
          <mxGeometry relative="1" as="geometry">
            <Array as="points">
              <mxPoint x="190" y="350" />
              <mxPoint x="490" y="350" />
            </Array>
          </mxGeometry>
        </mxCell>
        <mxCell id="XgUEgmGRAu_tAy5mbtj5-1" value="Generator" style="ellipse;whiteSpace=wrap;html=1;fillColor=#ffe6cc;strokeColor=#d79b00;sketch=1;fontSize=18;fontFamily=Comic Sans MS;fontColor=#994C00;" vertex="1" parent="1">
          <mxGeometry x="130" y="210" width="120" height="80" as="geometry" />
        </mxCell>
        <mxCell id="XgUEgmGRAu_tAy5mbtj5-4" value="ist nicht immer ein" style="edgeStyle=orthogonalEdgeStyle;curved=1;sketch=1;orthogonalLoop=1;jettySize=auto;html=1;exitX=0.5;exitY=0;exitDx=0;exitDy=0;entryX=0.5;entryY=0;entryDx=0;entryDy=0;fontFamily=Comic Sans MS;fontSize=18;fontColor=#336600;endArrow=open;endFill=0;startSize=10;endSize=10;strokeColor=#82b366;strokeWidth=2;fillColor=#d5e8d4;" edge="1" parent="1" source="XgUEgmGRAu_tAy5mbtj5-2" target="XgUEgmGRAu_tAy5mbtj5-1">
          <mxGeometry relative="1" as="geometry">
            <Array as="points">
              <mxPoint x="490" y="150" />
              <mxPoint x="190" y="150" />
            </Array>
          </mxGeometry>
        </mxCell>
        <mxCell id="XgUEgmGRAu_tAy5mbtj5-2" value="Iterator" style="ellipse;whiteSpace=wrap;html=1;fillColor=#d5e8d4;strokeColor=#82b366;sketch=1;fontSize=18;fontFamily=Comic Sans MS;fontColor=#336600;" vertex="1" parent="1">
          <mxGeometry x="430" y="210" width="120" height="80" as="geometry" />
        </mxCell>
      </root>
    </mxGraphModel>
  </diagram>
</mxfile>
